<?xml version="1.0" encoding="utf-8"?>
<!-- Generator: Adobe Illustrator 18.0.0, SVG Export Plug-In . SVG Version: 6.00 Build 0)  -->
<!DOCTYPE svg PUBLIC "-//W3C//DTD SVG 1.1//EN" "http://www.w3.org/Graphics/SVG/1.1/DTD/svg11.dtd">
<svg version="1.1" id="Capa_1" xmlns="http://www.w3.org/2000/svg" xmlns:xlink="http://www.w3.org/1999/xlink" x="0px" y="0px"
	 viewBox="940 520 40 40" enable-background="new 940 520 40 40" xml:space="preserve">
<g>
	<path fill="#FFFFFF" d="M977.8,530.8c-1.4-2.7-3.4-5.1-5.9-6.9c-0.4-0.3-0.9-0.2-1.1,0.2c-0.3,0.4-0.2,0.9,0.2,1.1
		c2.3,1.7,4.1,3.9,5.4,6.4c1.3,2.6,2,5.4,2,8.4c0,10.1-8.2,18.4-18.4,18.4s-18.4-8.2-18.4-18.4s8.2-18.4,18.4-18.4
		c0.4,0,0.8-0.4,0.8-0.8c0-0.4-0.4-0.8-0.8-0.8c-11,0-20,9-20,20s9,20,20,20s20-9,20-20C980,536.8,979.2,533.7,977.8,530.8z"/>
	<path fill="#FFFFFF" d="M954.9,530.7c-0.3,0.1-0.4,0.4-0.4,0.7v17.9c0,0.4,0.4,0.8,0.8,0.8s0.8-0.4,0.8-0.8v-16.4l12.1,7.2
		l-8.9,5.7c-0.4,0.2-0.5,0.7-0.2,1.1c0.2,0.4,0.7,0.5,1.1,0.2l10-6.4c0.2-0.2,0.4-0.4,0.4-0.7c0-0.3-0.2-0.5-0.4-0.7l-14.4-8.6
		C955.4,530.6,955.1,530.6,954.9,530.7z"/>
</g>
</svg>
